<?xml version="1.0" standalone="no"?>
<!DOCTYPE svg PUBLIC "-//W3C//DTD SVG 20010904//EN"
 "http://www.w3.org/TR/2001/REC-SVG-20010904/DTD/svg10.dtd">
<svg version="1.0" xmlns="http://www.w3.org/2000/svg"
 width="64.000000pt" height="64.000000pt" viewBox="0 0 64.000000 64.000000"
 preserveAspectRatio="xMidYMid meet">

<g transform="translate(0.000000,64.000000) scale(0.100000,-0.100000)"
fill="#000000" stroke="none">
<path d="M137 613 c-4 -3 -7 -37 -7 -75 l0 -68 -39 0 c-69 0 -71 -6 -71 -225
0 -163 3 -196 16 -209 13 -14 47 -16 220 -16 129 0 204 4 204 10 0 6 -64 10
-172 10 l-173 0 5 157 5 158 225 0 225 0 3 -42 c4 -54 22 -57 22 -4 0 37 -19
71 -41 71 -5 0 -9 37 -9 83 0 83 0 83 -38 120 l-38 37 -165 0 c-91 0 -169 -3
-172 -7z m235 -45 c3 -30 6 -33 41 -36 l37 -3 0 -75 0 -74 -150 0 -150 0 0
110 0 110 109 0 110 0 3 -32z m78 16 c0 -14 -3 -14 -15 -4 -8 7 -15 14 -15 16
0 2 7 4 15 4 8 0 15 -7 15 -16z m-35 -14 c18 -19 17 -20 -3 -20 -15 0 -22 6
-22 20 0 11 2 20 3 20 2 0 12 -9 22 -20z m80 0 c18 -19 17 -20 -3 -20 -15 0
-22 6 -22 20 0 11 2 20 3 20 2 0 12 -9 22 -20z m35 -115 l0 -75 -30 0 c-16 0
-30 5 -30 10 0 6 9 10 20 10 11 0 20 5 20 10 0 6 -9 10 -20 10 -11 0 -20 7
-20 15 0 8 9 15 20 15 11 0 20 5 20 10 0 6 -9 10 -20 10 -16 0 -20 7 -20 30 0
27 3 30 30 30 l30 0 0 -75z m-400 -44 c0 -23 -5 -41 -12 -43 -10 -3 -14 -49
-18 -164 l-5 -159 -25 0 -25 0 -3 190 c-1 104 0 195 2 202 3 8 22 13 46 13 40
0 40 0 40 -39z"/>
<path d="M170 560 c0 -6 37 -10 90 -10 53 0 90 4 90 10 0 6 -37 10 -90 10 -53
0 -90 -4 -90 -10z"/>
<path d="M170 510 c0 -6 40 -10 100 -10 60 0 100 4 100 10 0 6 -40 10 -100 10
-60 0 -100 -4 -100 -10z"/>
<path d="M170 460 c0 -6 50 -10 130 -10 80 0 130 4 130 10 0 6 -50 10 -130 10
-80 0 -130 -4 -130 -10z"/>
<path d="M170 410 c0 -6 50 -10 130 -10 80 0 130 4 130 10 0 6 -50 10 -130 10
-80 0 -130 -4 -130 -10z"/>
<path d="M420 330 c0 -5 5 -10 10 -10 6 0 10 5 10 10 0 6 -4 10 -10 10 -5 0
-10 -4 -10 -10z"/>
<path d="M348 293 c-42 -44 -60 -111 -42 -157 12 -31 21 -15 17 27 -6 50 13
94 52 125 28 22 32 32 12 32 -7 0 -25 -12 -39 -27z"/>
<path d="M433 284 c-3 -9 -13 -14 -24 -11 -22 6 -45 -19 -41 -43 2 -10 -4 -20
-13 -23 -20 -8 -20 -46 0 -54 9 -3 15 -13 13 -23 -4 -24 19 -49 41 -43 11 3
21 -2 24 -11 8 -20 46 -21 54 -1 3 9 13 15 23 13 23 -4 50 20 43 39 -4 9 1 19
10 25 21 12 22 47 1 55 -9 3 -14 13 -11 24 6 22 -19 45 -43 41 -10 -2 -20 4
-23 13 -8 20 -46 19 -54 -1z m37 -19 c0 -14 18 -20 48 -16 7 1 12 -4 11 -11
-4 -30 2 -48 16 -48 8 0 15 -4 15 -10 0 -5 -7 -10 -15 -10 -14 0 -20 -18 -16
-48 1 -7 -4 -12 -11 -11 -30 4 -48 -2 -48 -16 0 -8 -4 -15 -10 -15 -5 0 -10 7
-10 15 0 14 -18 20 -48 16 -7 -1 -12 4 -11 11 4 30 -2 48 -16 48 -8 0 -15 5
-15 10 0 6 7 10 15 10 14 0 20 18 16 48 -1 7 4 12 11 11 30 -4 48 2 48 16 0 8
5 15 10 15 6 0 10 -7 10 -15z"/>
<path d="M426 214 c-9 -8 -16 -24 -16 -34 0 -10 7 -26 16 -34 30 -31 84 -9 84
34 0 24 -26 50 -50 50 -10 0 -26 -7 -34 -16z m59 -34 c0 -18 -6 -26 -23 -28
-24 -4 -38 18 -28 44 3 9 15 14 28 12 17 -2 23 -10 23 -28z"/>
<path d="M597 206 c7 -46 -12 -100 -48 -130 -32 -27 -36 -36 -16 -36 18 0 64
49 76 83 18 46 12 117 -9 117 -5 0 -6 -15 -3 -34z"/>
<path d="M480 30 c0 -5 5 -10 10 -10 6 0 10 5 10 10 0 6 -4 10 -10 10 -5 0
-10 -4 -10 -10z"/>
</g>
</svg>
